<svg width="46" height="46" viewBox="0 0 46 46" fill="none" xmlns="http://www.w3.org/2000/svg">
<g opacity="0.4" clip-path="url(#clip0_2402_29)">
<path fill-rule="evenodd" clip-rule="evenodd" d="M23.4082 0.703125C35.8582 0.703125 45.9082 10.7531 45.9082 23.2031C45.9082 35.6531 35.8582 45.7031 23.4082 45.7031C10.9582 45.7031 0.908203 35.6531 0.908203 23.2031C0.908203 10.7531 10.9582 0.703125 23.4082 0.703125ZM23.4082 2.80312C34.6582 2.80312 43.8082 11.9531 43.8082 23.2031C43.8082 34.4531 34.6582 43.6031 23.4082 43.6031C12.1582 43.6031 3.0082 34.4531 3.0082 23.2031C3.0082 11.9531 12.1582 2.80312 23.4082 2.80312ZM23.4082 4.90312C33.5332 4.90312 41.7082 13.0781 41.7082 23.2031C41.7082 33.3281 33.5332 41.5031 23.4082 41.5031C13.2832 41.5031 5.1082 33.3281 5.1082 23.2031C5.1082 13.0781 13.2832 4.90312 23.4082 4.90312ZM14.7832 30.4031H12.0832V20.2031C11.1082 21.1781 9.9832 21.8531 8.6332 22.3031V19.8281C9.3832 19.6031 10.1332 19.1531 10.9582 18.5531C11.7832 17.8781 12.3082 17.1281 12.6082 16.3031H14.7832V30.4031ZM21.1582 22.8281C20.4832 22.5281 19.9582 22.0781 19.6582 21.6281C19.2832 21.1031 19.1332 20.5031 19.1332 19.9031C19.1332 18.8531 19.5082 18.0281 20.2582 17.2781C21.0082 16.6031 21.9832 16.3031 23.3332 16.3031C24.6832 16.3031 25.7332 16.6031 26.4832 17.2781C27.2332 18.0281 27.5332 18.8531 27.5332 19.9031C27.5332 20.5781 27.3832 21.1031 27.0832 21.6281C26.7082 22.1531 26.2582 22.5281 25.6582 22.8281C26.4082 23.1281 27.0082 23.5781 27.3832 24.1781C27.8332 24.7781 27.9832 25.4531 27.9832 26.2781C27.9832 27.5531 27.6082 28.6031 26.7832 29.4281C25.9582 30.2531 24.8332 30.6281 23.4832 30.6281C22.2082 30.6281 21.1582 30.3281 20.3332 29.6531C19.2832 28.8281 18.8332 27.7781 18.8332 26.3531C18.8332 25.6031 18.9832 24.9281 19.3582 24.2531C19.7332 23.6531 20.3332 23.1281 21.1582 22.8281ZM21.6832 20.1281C21.6832 20.6531 21.8332 21.0281 22.1332 21.3281C22.4332 21.6281 22.8832 21.7781 23.3332 21.7781C23.8582 21.7781 24.3082 21.6281 24.6082 21.3281C24.9082 21.0281 25.0582 20.6531 25.0582 20.1281C25.0582 19.6031 24.9082 19.1531 24.6082 18.8531C24.3082 18.5531 23.8582 18.4031 23.4082 18.4031C22.8832 18.4031 22.4332 18.5531 22.1332 18.8531C21.8332 19.1531 21.6832 19.6031 21.6832 20.1281ZM21.4582 26.1281C21.4582 26.8781 21.6082 27.4781 21.9832 27.8531C22.4332 28.3031 22.8832 28.5281 23.4082 28.5281C24.0082 28.5281 24.4582 28.3031 24.8332 27.8531C25.1332 27.4781 25.3582 26.8781 25.3582 26.1281C25.3582 25.4531 25.1332 24.9281 24.8332 24.5531C24.4582 24.1781 23.9332 23.9531 23.4082 23.9531C22.7332 23.9531 22.2832 24.1781 21.9082 24.6281C21.6082 25.0781 21.4582 25.6031 21.4582 26.1281ZM33.3832 28.3781V24.7031H29.7082V22.2281H33.3832V18.5531H35.8582V22.2281H39.5332V24.7031H35.8582V28.3781H33.3832Z" fill="white"/>
</g>
<defs>
<clipPath id="clip0_2402_29">
<rect width="45" height="45" fill="white" transform="translate(0.907227 0.703125)"/>
</clipPath>
</defs>
</svg>
