<svg width="46" height="46" viewBox="0 0 46 46" fill="none" xmlns="http://www.w3.org/2000/svg">
<path opacity="0.4" fill-rule="evenodd" clip-rule="evenodd" d="M17.323 45.0257C29.4105 48.0479 41.5682 40.6683 44.59 28.65C47.6119 16.6317 40.3032 4.40263 28.2158 1.38049C16.1283 -1.64164 3.97065 5.738 0.948792 17.7563C-2.07307 29.8448 5.30588 42.0036 17.323 45.0257ZM27.7932 14.3123C30.8853 15.4368 33.1341 16.983 32.7125 20.0051C32.4314 22.2542 31.1664 23.3084 29.6906 23.449C31.8692 24.5735 32.9936 26.3305 31.9394 29.4229C30.6042 33.2182 27.4418 33.4993 23.2253 32.7262L22.1711 36.8026L19.7115 36.17L20.6953 32.164C20.0628 32.0234 19.4303 31.8828 18.7276 31.672L17.7437 35.7483L15.2841 35.1158L16.3382 31.0394C16.0571 30.9692 15.7584 30.8989 15.4597 30.8286C15.1611 30.7583 14.8624 30.688 14.5813 30.6178L11.3486 29.8446L12.5433 27.0334C12.5433 27.0334 14.3705 27.5253 14.3705 27.4551C15.0733 27.6659 15.3544 27.1739 15.4949 26.8928L17.1113 20.4268L18.2357 15.7882C18.3059 15.2962 18.0951 14.6637 17.1113 14.3826C17.1815 14.3826 15.3544 13.9609 15.3544 13.9609L15.9868 11.2901L19.3601 12.1335C19.6343 12.2119 19.9085 12.2684 20.1949 12.3274C20.4223 12.3743 20.6573 12.4227 20.9061 12.485L21.89 8.40857L24.3496 9.04111L23.3658 13.0472C23.9021 13.226 24.489 13.3543 25.0407 13.4748C25.1396 13.4964 25.2374 13.5178 25.3335 13.5392L26.3174 9.60338L28.777 10.2359L27.7932 14.3123ZM20.0124 29.0654C22.0448 29.6094 26.3845 30.7711 27.0904 27.947C27.7808 25.0598 23.595 24.1344 21.4905 23.6692C21.2384 23.6135 21.0162 23.5643 20.8359 23.5192L19.5006 28.931C19.647 28.9676 19.8193 29.0137 20.0124 29.0654ZM21.8617 21.1623C23.5426 21.6102 27.2174 22.5895 27.8634 20.0051C28.5198 17.248 24.6393 16.5143 22.9791 16.2004C22.8619 16.1782 22.7557 16.1582 22.663 16.1396L21.4684 21.0594C21.5818 21.0877 21.7141 21.123 21.8617 21.1623Z" fill="white"/>
</svg>
