<svg width="46" height="46" viewBox="0 0 46 46" fill="none" xmlns="http://www.w3.org/2000/svg">
<g opacity="0.4" clip-path="url(#clip0_2402_14)">
<path fill-rule="evenodd" clip-rule="evenodd" d="M23.3125 45.7031C35.7389 45.7031 45.8125 35.6295 45.8125 23.2031C45.8125 10.7767 35.7389 0.703125 23.3125 0.703125C10.8861 0.703125 0.8125 10.7767 0.8125 23.2031C0.8125 35.6295 10.8861 45.7031 23.3125 45.7031ZM24.0114 18.8016L13.4675 23.5125L24.0112 6.32864V6.32812L24.0114 6.32838L24.0115 6.32813V6.32863L34.5539 23.5125L24.0114 18.8016ZM24.0112 40.0717L24.0113 40.0716L24.0113 40.0717V40.0715L34.5609 25.4762L24.0113 31.5961V31.5948L13.4673 25.4762L24.0112 40.0715V40.0717ZM24.0113 29.6341L34.5539 23.5127L24.0113 18.8046H24.0112V18.8046L13.4673 23.5127L24.0112 29.634V29.6341H24.0113Z" fill="white"/>
</g>
<defs>
<clipPath id="clip0_2402_14">
<rect width="45" height="45" fill="white" transform="translate(0.816406 0.703125)"/>
</clipPath>
</defs>
</svg>
