<svg width="46" height="46" viewBox="0 0 46 46" fill="none" xmlns="http://www.w3.org/2000/svg">
<path opacity="0.4" fill-rule="evenodd" clip-rule="evenodd" d="M35.3626 4.49506C31.6625 2.02273 27.3124 0.703125 22.8623 0.703125C16.8954 0.704745 11.1734 3.07579 6.95419 7.29501C2.73498 11.5142 0.363925 17.2362 0.362305 23.2031C0.362305 27.6532 1.68191 32.0033 4.15424 35.7034C6.62657 39.4035 10.1406 42.2874 14.2519 43.9904C18.3633 45.6934 22.8873 46.1389 27.2518 45.2708C31.6164 44.4026 35.6255 42.2597 38.7722 39.113C41.9189 35.9663 44.0618 31.9572 44.9299 27.5926C45.7981 23.2281 45.3525 18.7041 43.6496 14.5927C41.9466 10.4814 39.0627 6.96739 35.3626 4.49506ZM25.638 16.8601V20.2088H25.6685C31.8771 20.496 36.5458 21.7182 36.5458 23.197C36.5458 24.6758 31.8771 25.9041 25.6685 26.1913V36.9157H20.1321V26.1913C13.9113 25.9041 9.23047 24.6758 9.23047 23.197C9.23047 21.7182 13.9113 20.4899 20.1321 20.2027V16.8601H12.4753V11.7576H33.2948V16.8601H25.638ZM25.4535 25.2951C25.5618 25.2901 25.6321 25.2869 25.6685 25.2869V25.2808C31.1499 25.0363 35.2442 24.0647 35.2442 22.9403C35.2442 21.816 31.1683 20.8382 25.6685 20.5938V24.3336C25.662 24.3341 25.6543 24.3347 25.6454 24.3354C25.4376 24.3517 24.5781 24.4192 22.9431 24.4192C22.0007 24.4192 21.2284 24.3814 20.7105 24.356C20.4494 24.3432 20.253 24.3336 20.1321 24.3336V20.5938C14.6385 20.8382 10.5321 21.816 10.5321 22.9403C10.5321 24.0647 14.6324 25.0425 20.1321 25.2869C20.4743 25.3052 21.4949 25.348 22.9187 25.348C24.2982 25.348 25.09 25.3117 25.4535 25.2951Z" fill="white"/>
</svg>
