<svg width="133" height="24" viewBox="0 0 133 24" fill="none" xmlns="http://www.w3.org/2000/svg">
<g opacity="0.4" clip-path="url(#clip0_2402_7)">
<path fill-rule="evenodd" clip-rule="evenodd" d="M19.0818 3.12012C18.9324 3.23729 18.7861 3.358 18.6431 3.48191C16.1992 5.60098 14.6522 8.72036 14.6522 12.2019C14.6522 15.683 16.1992 18.8024 18.6431 20.9215C18.7864 21.0455 18.9327 21.1662 19.0818 21.2833C19.231 21.1662 19.3773 21.0455 19.5206 20.9215C21.9645 18.8024 23.5115 15.683 23.5115 12.2019C23.5115 8.72036 21.9645 5.60098 19.5206 3.48191C19.3774 3.35775 19.2311 3.23712 19.0818 3.12012ZM26.2496 0.645034C23.9648 0.641464 21.7304 1.31359 19.8293 2.57631C19.9233 2.65303 20.0184 2.72879 20.1095 2.80776C21.4588 3.976 22.5409 5.41914 23.2825 7.03975C24.0242 8.66036 24.4083 10.4207 24.4087 12.2019C24.4081 13.9829 24.024 15.7431 23.2824 17.3637C22.5408 18.9842 21.459 20.4273 20.1099 21.5956C20.019 21.6739 19.9233 21.75 19.8293 21.8271C21.7304 23.0898 23.9648 23.7619 26.2496 23.7583C32.6547 23.7583 37.8473 18.5841 37.8473 12.2019C37.8473 5.81896 32.6547 0.645034 26.2496 0.645034ZM18.0542 21.5956C18.1447 21.6739 18.2404 21.75 18.3344 21.8271C16.4334 23.09 14.1989 23.7623 11.9141 23.7587C5.50864 23.7587 0.316406 18.5841 0.316406 12.2019C0.316406 5.81928 5.50864 0.645034 11.9141 0.645034C14.2884 0.645034 16.4959 1.35642 18.3344 2.57631C18.2404 2.65303 18.1453 2.72879 18.0542 2.80744C16.7049 3.97576 15.6229 5.41898 14.8812 7.03963C14.1395 8.66028 13.7555 10.4206 13.7549 12.2019C13.7555 13.983 14.1396 15.7432 14.8812 17.3638C15.6229 18.9843 16.7049 20.4274 18.0542 21.5956ZM61.0102 12.2516C61.0102 10.9011 61.8974 9.79161 63.3497 9.79161C64.7376 9.79161 65.6735 10.8529 65.6735 12.2516C65.6735 13.6503 64.7376 14.7116 63.3497 14.7116C61.8974 14.7116 61.0102 13.6025 61.0102 12.2516ZM67.2546 12.2516V8.40897H65.5765V9.34122C65.044 8.65006 64.2373 8.21603 63.14 8.21603C60.9777 8.21603 59.2838 9.90429 59.2838 12.2516C59.2838 14.5992 60.9777 16.2875 63.14 16.2875C64.2373 16.2875 65.044 15.8535 65.5765 15.162V16.0949H67.2546V12.2516ZM123.924 12.2516C123.924 10.9011 124.812 9.79161 126.264 9.79161C127.651 9.79161 128.587 10.8529 128.587 12.2516C128.587 13.6503 127.651 14.7116 126.264 14.7116C124.812 14.7116 123.924 13.6025 123.924 12.2516ZM132.046 15.7299V15.8506H132.158C132.179 15.8516 132.2 15.8464 132.219 15.8355C132.234 15.8256 132.241 15.8101 132.241 15.7893C132.242 15.7805 132.24 15.7718 132.236 15.7639C132.232 15.7561 132.226 15.7495 132.219 15.7447C132.2 15.7338 132.179 15.7286 132.158 15.7299H132.046ZM132.159 15.6448C132.217 15.6448 132.262 15.6577 132.294 15.6837C132.325 15.7093 132.341 15.745 132.341 15.7893C132.342 15.8065 132.339 15.8237 132.332 15.8397C132.326 15.8556 132.316 15.8701 132.303 15.8821C132.273 15.9083 132.236 15.9241 132.196 15.927L132.345 16.0978H132.228L132.09 15.928H132.046V16.0978H131.949V15.6448H132.159ZM132.13 16.2535C132.18 16.2538 132.229 16.2441 132.275 16.225C132.321 16.2059 132.363 16.1776 132.397 16.1421C132.433 16.1067 132.461 16.0647 132.48 16.0186C132.499 15.9724 132.508 15.923 132.508 15.8731C132.508 15.8204 132.498 15.7713 132.479 15.7248C132.459 15.6798 132.432 15.6388 132.397 15.6041C132.363 15.5699 132.322 15.5426 132.278 15.5235C132.231 15.5036 132.181 15.4936 132.13 15.4939C132.028 15.4933 131.93 15.5329 131.857 15.6041C131.822 15.6394 131.794 15.6814 131.775 15.7275C131.756 15.7737 131.747 15.8232 131.747 15.8731C131.747 15.923 131.756 15.9725 131.775 16.0186C131.794 16.0648 131.822 16.1068 131.857 16.1421C131.93 16.2138 132.028 16.2538 132.13 16.2535ZM132.13 15.3854C132.227 15.3852 132.323 15.4133 132.404 15.4663C132.486 15.5193 132.55 15.5948 132.589 15.6837C132.615 15.7431 132.628 15.806 132.628 15.8731C132.628 15.9402 132.615 16.0031 132.589 16.0621C132.537 16.1792 132.442 16.2721 132.324 16.3222C132.262 16.3483 132.197 16.3616 132.13 16.361C132.064 16.3617 131.998 16.3493 131.937 16.3245C131.876 16.2997 131.82 16.263 131.773 16.2166C131.729 16.1723 131.693 16.1199 131.667 16.0621C131.641 16.0025 131.628 15.9381 131.628 15.8731C131.628 15.806 131.641 15.7431 131.667 15.6837C131.693 15.6243 131.729 15.5726 131.773 15.5283C131.82 15.4822 131.876 15.4458 131.937 15.4213C131.999 15.3968 132.064 15.3846 132.13 15.3854ZM130.169 12.2516V5.32169H128.491V9.34122C127.958 8.65006 127.151 8.21603 126.054 8.21603C123.891 8.21603 122.198 9.90429 122.198 12.2516C122.198 14.5992 123.891 16.2875 126.054 16.2875C127.151 16.2875 127.958 15.8535 128.491 15.162V16.0949H130.169V12.2516ZM88.07 9.71136C89.1511 9.71136 89.845 10.3865 90.0226 11.5765H86.0207C86.1982 10.467 86.876 9.71136 88.07 9.71136ZM88.1025 8.21603C85.8432 8.21603 84.262 9.85582 84.262 12.2516C84.262 14.6959 85.9076 16.2875 88.2152 16.2875C89.3773 16.2875 90.442 15.9983 91.3782 15.2105L90.5551 13.972C89.9095 14.4869 89.0867 14.7761 88.3119 14.7761C87.2311 14.7761 86.2465 14.2776 86.0046 12.8949H91.7329C91.749 12.6856 91.7651 12.477 91.7651 12.2516C91.749 9.85582 90.2648 8.21603 88.1025 8.21603ZM108.353 12.2516C108.353 10.9011 109.24 9.79161 110.693 9.79161C112.08 9.79161 113.016 10.8529 113.016 12.2516C113.016 13.6503 112.08 14.7116 110.693 14.7116C109.24 14.7116 108.353 13.6025 108.353 12.2516ZM114.597 12.2516V8.40897H112.919V9.34122C112.387 8.65006 111.58 8.21603 110.483 8.21603C108.321 8.21603 106.626 9.90429 106.626 12.2516C106.626 14.5992 108.321 16.2875 110.483 16.2875C111.58 16.2875 112.387 15.8535 112.919 15.162V16.0949H114.597V12.2516ZM98.881 12.2516C98.881 14.5832 100.511 16.2875 102.996 16.2875C104.158 16.2875 104.932 16.03 105.771 15.371L104.964 14.0204C104.335 14.4708 103.673 14.7116 102.947 14.7116C101.608 14.6959 100.624 13.7309 100.624 12.2516C100.624 10.7723 101.608 9.80766 102.947 9.79161C103.673 9.79161 104.335 10.0327 104.964 10.4831L105.771 9.13255C104.932 8.47317 104.158 8.21603 102.996 8.21603C100.511 8.21603 98.881 9.92034 98.881 12.2516ZM120.503 8.21603C119.535 8.21603 118.906 8.66611 118.47 9.34122V8.40897H116.808V16.0949H118.486V11.7855C118.486 10.5152 119.035 9.80766 120.132 9.80766C120.471 9.80766 120.826 9.85582 121.181 10.0006L121.697 8.42502C121.326 8.28024 120.842 8.21603 120.503 8.21603ZM75.5486 9.01987C74.7416 8.48922 73.6282 8.21603 72.4021 8.21603C70.4495 8.21603 69.1908 9.14828 69.1908 10.676C69.1908 11.9303 70.127 12.702 71.8531 12.9431L72.644 13.0558C73.5638 13.1842 73.9993 13.4253 73.9993 13.8596C73.9993 14.4545 73.3863 14.7922 72.2407 14.7922C71.079 14.7922 70.2397 14.4224 69.6747 13.9883L68.8841 15.2907C69.8042 15.9658 70.9659 16.2875 72.2246 16.2875C74.4513 16.2875 75.7419 15.2423 75.7419 13.7794C75.7419 12.4285 74.7255 11.721 73.0474 11.4799L72.2568 11.3672C71.5306 11.2709 70.9498 11.1261 70.9498 10.6118C70.9498 10.0488 71.4984 9.71136 72.4182 9.71136C73.4024 9.71136 74.3544 10.0812 74.8225 10.3704L75.5486 9.01987ZM97.1867 8.21603C96.2186 8.21603 95.5895 8.66611 95.1536 9.34122V8.40897H93.4916V16.0949H95.1697V11.7855C95.1697 10.5152 95.7183 9.80766 96.8159 9.80766C97.1545 9.80766 97.5095 9.85582 97.8646 10.0006L98.381 8.42502C98.0099 8.28024 97.5256 8.21603 97.1867 8.21603ZM82.8742 8.40897H80.131V6.07738H78.4371V8.40897H76.8717V9.93639H78.4371V13.4416C78.4371 15.2262 79.1307 16.2875 81.1152 16.2875C81.8417 16.2875 82.6806 16.0625 83.2131 15.6927L82.7292 14.2619C82.2286 14.5511 81.6799 14.6959 81.2447 14.6959C80.4055 14.6959 80.131 14.1813 80.131 13.4092V9.93639H82.8742V8.40897ZM57.7989 16.0949V11.2709C57.7989 9.4539 56.6372 8.23208 54.7655 8.21603C53.7813 8.19998 52.7645 8.50527 52.0548 9.58263C51.5223 8.73063 50.6831 8.21603 49.5053 8.21603C48.6821 8.21603 47.8755 8.45712 47.2463 9.35759V8.40897H45.5678V16.0949H47.2624V11.8336C47.2624 10.4991 48.0046 9.79161 49.1502 9.79161C50.2636 9.79161 50.8284 10.5152 50.8284 11.8176V16.0949H52.5226V11.8336C52.5226 10.4991 53.2971 9.79161 54.4105 9.79161C55.5561 9.79161 56.1047 10.5152 56.1047 11.8176V16.0949H57.7989ZM37.4849 19.3629V18.9144H37.3676L37.2323 19.2229L37.097 18.9144H36.9797V19.3629H37.0625V19.0245L37.1894 19.3164H37.2755L37.4021 19.0239V19.3629H37.4849ZM36.7407 19.3629V18.9908H36.8911V18.9154H36.5078V18.9908H36.6585V19.3629H36.7407Z" fill="white"/>
</g>
<defs>
<clipPath id="clip0_2402_7">
<rect width="132.407" height="23.1136" fill="white" transform="translate(0.318359 0.64624)"/>
</clipPath>
</defs>
</svg>
