<svg width="80" height="26" viewBox="0 0 80 26" fill="none" xmlns="http://www.w3.org/2000/svg">
<g opacity="0.4" clip-path="url(#clip0_2402_2)">
<path fill-rule="evenodd" clip-rule="evenodd" d="M28.1501 25.1809L32.1526 1.36294H38.6393L34.6369 25.1809H28.1501ZM57.9614 1.91685C56.7193 1.50142 54.7871 0.94751 52.1648 0.94751C45.8161 0.94751 41.3996 4.13247 41.2616 8.84068C41.2616 12.1641 44.5739 14.1028 46.9202 15.2106C49.5425 16.4569 50.3706 17.1493 50.3706 18.2571C50.3706 19.7803 48.3004 20.4727 46.5062 20.4727C43.8839 20.4727 42.5037 20.1958 40.4335 19.2264L39.4674 18.9495L38.6393 24.2116C40.1575 24.904 42.9178 25.4579 45.8161 25.4579C52.5788 25.4579 56.9953 22.2729 57.1333 17.4262C57.1333 14.6567 55.3391 12.5796 51.6127 10.9178C49.4045 9.81002 48.0243 9.11764 48.0243 8.00982C48.0243 7.04048 49.2665 5.93267 51.7507 5.93267C53.821 5.93267 55.3391 6.3481 56.5813 6.76353L57.1333 7.04048L57.9614 1.91685ZM74.6612 1.36294H69.5547C68.0365 1.36294 66.9324 1.77837 66.2423 3.30161L56.5813 25.1809H63.344C63.344 25.1809 64.4481 22.2729 64.7241 21.5805H73.005C73.2811 22.4114 73.8331 25.1809 73.8331 25.1809H79.7678L74.6612 1.36294ZM66.6564 16.7339C67.2084 15.3491 69.1406 10.087 69.1406 10.087C69.1406 10.087 69.6927 8.7022 70.1067 7.73287L70.5208 9.81002C70.5208 9.81002 71.7629 15.4876 72.0389 16.7339H66.6564ZM22.6295 1.36294L16.4189 17.5647L15.7288 14.2413C14.4867 10.5024 10.8983 6.3481 6.75781 4.27095L12.5544 25.1809H19.3172L29.5303 1.36294H22.6295Z" fill="white"/>
<path fill-rule="evenodd" clip-rule="evenodd" d="M10.4833 1.36279H0.132156L-0.00585938 1.9167C8.13703 3.85537 13.5196 8.56358 15.7279 14.2411L13.3816 3.43994C13.1056 1.9167 11.8634 1.36279 10.4833 1.36279Z" fill="white"/>
</g>
<defs>
<clipPath id="clip0_2402_2">
<rect width="79.7727" height="24.5455" fill="white" transform="translate(0 0.930176)"/>
</clipPath>
</defs>
</svg>
